<mxfile host="Electron" modified="2023-08-03T13:06:07.216Z" agent="Mozilla/5.0 (Windows NT 10.0; Win64; x64) AppleWebKit/537.36 (KHTML, like Gecko) draw.io/21.6.5 Chrome/114.0.5735.243 Electron/25.3.1 Safari/537.36" etag="O8Q4ZQMgS1g4v6ok-yZC" version="21.6.5" type="device">
  <diagram name="Page-1" id="dgtpqXMFRSQR5g2qmXYe">
    <mxGraphModel dx="880" dy="511" grid="1" gridSize="10" guides="1" tooltips="1" connect="1" arrows="1" fold="1" page="1" pageScale="1" pageWidth="1169" pageHeight="827" math="0" shadow="0">
      <root>
        <mxCell id="0" />
        <mxCell id="1" parent="0" />
        <mxCell id="kQpFAkT8uiY9qS1oDsOh-13" style="edgeStyle=orthogonalEdgeStyle;rounded=0;orthogonalLoop=1;jettySize=auto;html=1;entryX=1;entryY=0.5;entryDx=0;entryDy=0;endArrow=none;endFill=0;endSize=12;" edge="1" parent="1" source="kQpFAkT8uiY9qS1oDsOh-1" target="kQpFAkT8uiY9qS1oDsOh-3">
          <mxGeometry relative="1" as="geometry" />
        </mxCell>
        <mxCell id="kQpFAkT8uiY9qS1oDsOh-19" value="+theAlarm" style="edgeLabel;html=1;align=center;verticalAlign=middle;resizable=0;points=[];" vertex="1" connectable="0" parent="kQpFAkT8uiY9qS1oDsOh-13">
          <mxGeometry x="0.1852" relative="1" as="geometry">
            <mxPoint x="-22" y="-13" as="offset" />
          </mxGeometry>
        </mxCell>
        <mxCell id="kQpFAkT8uiY9qS1oDsOh-20" value="1" style="edgeLabel;html=1;align=center;verticalAlign=middle;resizable=0;points=[];" vertex="1" connectable="0" parent="kQpFAkT8uiY9qS1oDsOh-13">
          <mxGeometry x="-0.0667" relative="1" as="geometry">
            <mxPoint x="-58" y="11" as="offset" />
          </mxGeometry>
        </mxCell>
        <mxCell id="kQpFAkT8uiY9qS1oDsOh-21" value="1" style="edgeLabel;html=1;align=center;verticalAlign=middle;resizable=0;points=[];" vertex="1" connectable="0" parent="kQpFAkT8uiY9qS1oDsOh-13">
          <mxGeometry x="-0.6444" relative="1" as="geometry">
            <mxPoint x="13" y="11" as="offset" />
          </mxGeometry>
        </mxCell>
        <mxCell id="kQpFAkT8uiY9qS1oDsOh-22" value="+theSensor" style="edgeLabel;html=1;align=center;verticalAlign=middle;resizable=0;points=[];" vertex="1" connectable="0" parent="kQpFAkT8uiY9qS1oDsOh-13">
          <mxGeometry x="-0.6148" y="1" relative="1" as="geometry">
            <mxPoint x="-8" y="-14" as="offset" />
          </mxGeometry>
        </mxCell>
        <mxCell id="kQpFAkT8uiY9qS1oDsOh-1" value="«interface»&lt;br&gt;&lt;b&gt;Isensor&lt;/b&gt;" style="swimlane;fontStyle=0;align=center;verticalAlign=top;childLayout=stackLayout;horizontal=1;startSize=40;horizontalStack=0;resizeParent=1;resizeParentMax=0;resizeLast=0;collapsible=0;marginBottom=0;html=1;whiteSpace=wrap;" vertex="1" parent="1">
          <mxGeometry x="515" y="25" width="140" height="80" as="geometry" />
        </mxCell>
        <mxCell id="kQpFAkT8uiY9qS1oDsOh-2" value="activate()&lt;br&gt;read()" style="text;html=1;strokeColor=none;fillColor=none;align=left;verticalAlign=middle;spacingLeft=4;spacingRight=4;overflow=hidden;rotatable=0;points=[[0,0.5],[1,0.5]];portConstraint=eastwest;whiteSpace=wrap;" vertex="1" parent="kQpFAkT8uiY9qS1oDsOh-1">
          <mxGeometry y="40" width="140" height="40" as="geometry" />
        </mxCell>
        <mxCell id="kQpFAkT8uiY9qS1oDsOh-15" style="edgeStyle=orthogonalEdgeStyle;rounded=0;orthogonalLoop=1;jettySize=auto;html=1;endArrow=openThin;endFill=0;endSize=12;targetPerimeterSpacing=4;" edge="1" parent="1" source="kQpFAkT8uiY9qS1oDsOh-3" target="kQpFAkT8uiY9qS1oDsOh-5">
          <mxGeometry relative="1" as="geometry" />
        </mxCell>
        <mxCell id="kQpFAkT8uiY9qS1oDsOh-16" value="1" style="edgeLabel;html=1;align=center;verticalAlign=middle;resizable=0;points=[];" vertex="1" connectable="0" parent="kQpFAkT8uiY9qS1oDsOh-15">
          <mxGeometry x="0.4" y="1" relative="1" as="geometry">
            <mxPoint x="-10" y="-12" as="offset" />
          </mxGeometry>
        </mxCell>
        <mxCell id="kQpFAkT8uiY9qS1oDsOh-17" value="+theBuzzer" style="edgeLabel;html=1;align=center;verticalAlign=middle;resizable=0;points=[];" vertex="1" connectable="0" parent="kQpFAkT8uiY9qS1oDsOh-15">
          <mxGeometry x="0.02" y="2" relative="1" as="geometry">
            <mxPoint x="-3" y="8" as="offset" />
          </mxGeometry>
        </mxCell>
        <mxCell id="kQpFAkT8uiY9qS1oDsOh-18" value="*" style="edgeLabel;html=1;align=center;verticalAlign=middle;resizable=0;points=[];" vertex="1" connectable="0" parent="kQpFAkT8uiY9qS1oDsOh-15">
          <mxGeometry x="-0.66" y="-1" relative="1" as="geometry">
            <mxPoint x="9" y="-7" as="offset" />
          </mxGeometry>
        </mxCell>
        <mxCell id="kQpFAkT8uiY9qS1oDsOh-3" value="«interface»&lt;br&gt;&lt;b&gt;IAlarm&lt;/b&gt;" style="swimlane;fontStyle=0;align=center;verticalAlign=top;childLayout=stackLayout;horizontal=1;startSize=40;horizontalStack=0;resizeParent=1;resizeParentMax=0;resizeLast=0;collapsible=0;marginBottom=0;html=1;whiteSpace=wrap;" vertex="1" parent="1">
          <mxGeometry x="240" y="30" width="140" height="70" as="geometry" />
        </mxCell>
        <mxCell id="kQpFAkT8uiY9qS1oDsOh-4" value="notify()" style="text;html=1;strokeColor=none;fillColor=none;align=left;verticalAlign=middle;spacingLeft=4;spacingRight=4;overflow=hidden;rotatable=0;points=[[0,0.5],[1,0.5]];portConstraint=eastwest;whiteSpace=wrap;" vertex="1" parent="kQpFAkT8uiY9qS1oDsOh-3">
          <mxGeometry y="40" width="140" height="30" as="geometry" />
        </mxCell>
        <mxCell id="kQpFAkT8uiY9qS1oDsOh-5" value="«interface»&lt;br&gt;&lt;b&gt;IBuzzer&lt;/b&gt;" style="swimlane;fontStyle=0;align=center;verticalAlign=top;childLayout=stackLayout;horizontal=1;startSize=40;horizontalStack=0;resizeParent=1;resizeParentMax=0;resizeLast=0;collapsible=0;marginBottom=0;html=1;whiteSpace=wrap;" vertex="1" parent="1">
          <mxGeometry y="5" width="140" height="120" as="geometry" />
        </mxCell>
        <mxCell id="kQpFAkT8uiY9qS1oDsOh-7" value="volume : Integer" style="text;html=1;strokeColor=none;fillColor=none;align=left;verticalAlign=middle;spacingLeft=4;spacingRight=4;overflow=hidden;rotatable=0;points=[[0,0.5],[1,0.5]];portConstraint=eastwest;whiteSpace=wrap;" vertex="1" parent="kQpFAkT8uiY9qS1oDsOh-5">
          <mxGeometry y="40" width="140" height="30" as="geometry" />
        </mxCell>
        <mxCell id="kQpFAkT8uiY9qS1oDsOh-10" value="" style="line;strokeWidth=1;fillColor=none;align=left;verticalAlign=middle;spacingTop=-1;spacingLeft=3;spacingRight=3;rotatable=0;labelPosition=right;points=[];portConstraint=eastwest;" vertex="1" parent="kQpFAkT8uiY9qS1oDsOh-5">
          <mxGeometry y="70" width="140" height="10" as="geometry" />
        </mxCell>
        <mxCell id="kQpFAkT8uiY9qS1oDsOh-12" value="start()&lt;br&gt;reset()&lt;br&gt;" style="text;html=1;strokeColor=none;fillColor=none;align=left;verticalAlign=middle;spacingLeft=4;spacingRight=4;overflow=hidden;rotatable=0;points=[[0,0.5],[1,0.5]];portConstraint=eastwest;whiteSpace=wrap;" vertex="1" parent="kQpFAkT8uiY9qS1oDsOh-5">
          <mxGeometry y="80" width="140" height="40" as="geometry" />
        </mxCell>
        <mxCell id="kQpFAkT8uiY9qS1oDsOh-23" value="Figure 10.12 A set of collaborating Interfaces" style="text;html=1;align=center;verticalAlign=middle;resizable=0;points=[];autosize=1;strokeColor=none;fillColor=none;" vertex="1" parent="1">
          <mxGeometry y="150" width="260" height="30" as="geometry" />
        </mxCell>
        <mxCell id="kQpFAkT8uiY9qS1oDsOh-25" value="" style="shape=waypoint;sketch=0;size=6;pointerEvents=1;points=[];fillColor=none;resizable=0;rotatable=0;perimeter=centerPerimeter;snapToPoint=1;" vertex="1" parent="1">
          <mxGeometry x="502" y="55" width="20" height="20" as="geometry" />
        </mxCell>
        <mxCell id="kQpFAkT8uiY9qS1oDsOh-26" value="" style="shape=waypoint;sketch=0;size=6;pointerEvents=1;points=[];fillColor=none;resizable=0;rotatable=0;perimeter=centerPerimeter;snapToPoint=1;" vertex="1" parent="1">
          <mxGeometry x="373" y="55" width="20" height="20" as="geometry" />
        </mxCell>
        <mxCell id="kQpFAkT8uiY9qS1oDsOh-28" value="" style="shape=waypoint;sketch=0;size=6;pointerEvents=1;points=[];fillColor=none;resizable=0;rotatable=0;perimeter=centerPerimeter;snapToPoint=1;" vertex="1" parent="1">
          <mxGeometry x="133" y="55" width="20" height="20" as="geometry" />
        </mxCell>
      </root>
    </mxGraphModel>
  </diagram>
</mxfile>
